<?xml version="1.0" encoding="utf-8"?><!--Generator: Adobe Illustrator 21.0.0, SVG Export Plug-In . SVG Version: 6.00 Build 0)--><svg version="1.1" id="圖層_1" xmlns="http://www.w3.org/2000/svg" xmlns:xlink="http://www.w3.org/1999/xlink" x="0px" y="0px" viewBox="0 0 100 100" enable-background="new 0 0 100 100" xml:space="preserve"><g><rect x="10" y="79.8" fill="#E0E0E0" width="80" height="3.1"/><path fill="#E0E0E0" d="M76.9,37.6H23.1c-2.6,0-4.7,2.1-4.7,4.7v37.4h39V52.6h17.3v27.1h6.9V42.3C81.6,39.7,79.5,37.6,76.9,37.6z"/></g><g><rect x="24.5" y="52.6" fill="#A0C8D7" width="26.3" height="27.1"/><polygon fill="#FFFFFF" points="24.5,62.7 34.6,52.6 31.7,52.6 24.5,59.8 	"/><polygon fill="#FFFFFF" points="24.5,65.6 37.5,52.6 36,52.6 24.5,64.1 	"/></g><g><rect x="57.4" y="52.6" fill="#333333" width="17.3" height="27.1"/><polygon fill="#F8B26A" points="53.8,67.7 53.8,69.7 54.5,69.7 54.5,79.8 66.9,79.8 66.9,69.7 68.3,69.7 68.3,67.7 	"/><rect x="58.5" y="65" fill="#666666" width="6.4" height="2.7"/></g><g><path fill="#E15B64" d="M77.5,22.9H22.5c-0.7,0-1.3-0.6-1.3-1.3v-3.1c0-0.7,0.6-1.3,1.3-1.3h55.1c0.7,0,1.3,0.6,1.3,1.3v3.1 C78.8,22.3,78.3,22.9,77.5,22.9z"/><path fill="#E15B64" d="M14,49.8L14,49.8c-2,0-3.7-1.6-3.7-3.7l11.4-23.2H27l-9.3,23.2C17.7,48.1,16.1,49.8,14,49.8z"/><path fill="#FFFFFF" d="M21.2,49.8L21.2,49.8c-2,0-3.7-1.6-3.7-3.7l9.3-23.2h5.2l-7.2,23.2C24.9,48.1,23.3,49.8,21.2,49.8z"/><path fill="#E15B64" d="M28.4,49.8L28.4,49.8c-2,0-3.7-1.6-3.7-3.7L32,22.9h5.2l-5.2,23.2C32.1,48.1,30.4,49.8,28.4,49.8z"/><path fill="#FFFFFF" d="M35.6,49.8L35.6,49.8c-2,0-3.7-1.6-3.7-3.7l5.2-23.2h5.2l-3.1,23.2C39.3,48.1,37.6,49.8,35.6,49.8z"/><path fill="#E15B64" d="M42.8,49.8L42.8,49.8c-2,0-3.7-1.6-3.7-3.7l3.1-23.2h5.2l-1,23.2C46.5,48.1,44.8,49.8,42.8,49.8z"/><path fill="#FFFFFF" d="M50,49.8L50,49.8c-2,0-3.7-1.6-3.7-3.7l1.1-23.2h5.2l1.1,23.2C53.7,48.1,52,49.8,50,49.8z"/><path fill="#E15B64" d="M57.2,49.8L57.2,49.8c-2,0-3.7-1.6-3.7-3.7l-1-23.2h5.2l3.1,23.2C60.8,48.1,59.2,49.8,57.2,49.8z"/><path fill="#FFFFFF" d="M64.4,49.8L64.4,49.8c-2,0-3.7-1.6-3.7-3.7l-3.1-23.2h5.2L68,46.1C68,48.1,66.4,49.8,64.4,49.8z"/><path fill="#E15B64" d="M71.6,49.8L71.6,49.8c-2,0-3.7-1.6-3.7-3.7l-5.2-23.2H68l7.3,23.2C75.2,48.1,73.6,49.8,71.6,49.8z"/><path fill="#FFFFFF" d="M78.8,49.8L78.8,49.8c-2,0-3.7-1.6-3.7-3.7l-7.2-23.2h5.2l9.3,23.2C82.4,48.1,80.8,49.8,78.8,49.8z"/><path fill="#E15B64" d="M86,49.8L86,49.8c-2,0-3.7-1.6-3.7-3.7L73,22.9h5.2l11.4,23.2C89.6,48.1,88,49.8,86,49.8z"/><path fill="#E15B64" d="M14,49.8L14,49.8c-2,0-3.7-1.6-3.7-3.7l11.4-23.2H27l-9.3,23.2C17.7,48.1,16.1,49.8,14,49.8z"/><path fill="#FFFFFF" d="M21.2,49.8L21.2,49.8c-2,0-3.7-1.6-3.7-3.7l9.3-23.2h5.2l-7.2,23.2C24.9,48.1,23.3,49.8,21.2,49.8z"/><path fill="#E15B64" d="M28.4,49.8L28.4,49.8c-2,0-3.7-1.6-3.7-3.7L32,22.9h5.2l-5.2,23.2C32.1,48.1,30.4,49.8,28.4,49.8z"/><path fill="#FFFFFF" d="M35.6,49.8L35.6,49.8c-2,0-3.7-1.6-3.7-3.7l5.2-23.2h5.2l-3.1,23.2C39.3,48.1,37.6,49.8,35.6,49.8z"/><path fill="#E15B64" d="M42.8,49.8L42.8,49.8c-2,0-3.7-1.6-3.7-3.7l3.1-23.2h5.2l-1,23.2C46.5,48.1,44.8,49.8,42.8,49.8z"/><path fill="#FFFFFF" d="M50,49.8L50,49.8c-2,0-3.7-1.6-3.7-3.7l1.1-23.2h5.2l1.1,23.2C53.7,48.1,52,49.8,50,49.8z"/><path fill="#E15B64" d="M57.2,49.8L57.2,49.8c-2,0-3.7-1.6-3.7-3.7l-1-23.2h5.2l3.1,23.2C60.8,48.1,59.2,49.8,57.2,49.8z"/><path fill="#FFFFFF" d="M64.4,49.8L64.4,49.8c-2,0-3.7-1.6-3.7-3.7l-3.1-23.2h5.2L68,46.1C68,48.1,66.4,49.8,64.4,49.8z"/><path fill="#E15B64" d="M71.6,49.8L71.6,49.8c-2,0-3.7-1.6-3.7-3.7l-5.2-23.2H68l7.3,23.2C75.2,48.1,73.6,49.8,71.6,49.8z"/><path fill="#FFFFFF" d="M78.8,49.8L78.8,49.8c-2,0-3.7-1.6-3.7-3.7l-7.2-23.2h5.2l9.3,23.2C82.4,48.1,80.8,49.8,78.8,49.8z"/><path fill="#E15B64" d="M86,49.8L86,49.8c-2,0-3.7-1.6-3.7-3.7L73,22.9h5.2l11.4,23.2C89.6,48.1,88,49.8,86,49.8z"/></g><metadata xmlns:d="https://loading.io/stock/">
<d:name>shop</d:name>
<d:tags>building,shop,store,sell,market,merchant,grocery,supermarket</d:tags>
<d:license>by</d:license>
<d:slug>1v1c3o</d:slug>
</metadata></svg>