<?xml version="1.0"?>
<svg version="1.1" id="圖層_1" xmlns="http://www.w3.org/2000/svg" x="0" y="0" viewBox="0 0 100 100" xml:space="preserve"><path d="M50 25.889L18.953 50.573v23.904a4.108 4.108 0 0 0 4.108 4.108h53.878a4.108 4.108 0 0 0 4.108-4.108V50.573L50 25.889z" fill="#f5e6c8"/><path d="M77.84 48.023l-12.321-9.796V23.845a2.429 2.429 0 0 1 2.429-2.429h7.463a2.429 2.429 0 0 1 2.429 2.429v24.178z" fill="#333"/><path d="M52.587 78.584H34.776V56.213c0-.992.804-1.796 1.796-1.796h13.413a2.601 2.601 0 0 1 2.601 2.601v21.566z" fill="#f8b26a"/><circle cx="47.963" cy="66.669" r="2.192" fill="#f47e60"/><path fill="none" stroke="#e15b64" stroke-width="8.767" stroke-miterlimit="10" d="M90 57.691L50 25.889 10 57.691"/><metadata xmlns:d="https://loading.io/stock/"><d:name>house</d:name><d:tags>house,home,chalet,cabin,building,construction,chimney</d:tags><d:license>by</d:license><d:slug>ynb8wo</d:slug></metadata></svg>